<svg width="393" height="191" viewBox="0 0 393 191" fill="none" xmlns="http://www.w3.org/2000/svg">
<mask id="mask0_82_2" style="mask-type:luminance" maskUnits="userSpaceOnUse" x="285" y="36" width="77" height="78">
<path d="M285.333 36H361.333V113.333H285.333V36Z" fill="white"/>
</mask>
<g mask="url(#mask0_82_2)">
<mask id="mask1_82_2" style="mask-type:luminance" maskUnits="userSpaceOnUse" x="270" y="21" width="103" height="106">
<path d="M304.63 21.75L372.583 53.4948L338.297 126.885L270.344 95.1354L304.63 21.75Z" fill="white"/>
</mask>
<g mask="url(#mask1_82_2)">
<mask id="mask2_82_2" style="mask-type:luminance" maskUnits="userSpaceOnUse" x="270" y="21" width="103" height="106">
<path d="M304.63 21.75L372.583 53.4948L338.297 126.885L270.344 95.1354L304.63 21.75Z" fill="white"/>
</mask>
<g mask="url(#mask2_82_2)">
<path d="M361.323 68.0936C361.365 61.3019 358.75 54.6821 353.922 49.8488C344.406 40.3332 330.302 34.4269 316.818 36.9686C303.635 39.453 291.542 49.8071 287.453 62.6353C285.344 69.2446 285.76 76.4061 289.297 82.4634C291.281 85.8644 294.182 88.7863 297.339 91.1301C298.813 92.2394 300.391 93.2863 302.063 94.0884C303.88 94.953 305.828 95.5363 307.74 96.1665C309.255 96.6665 310.948 97.1248 312.297 98.0155C312.349 98.0571 312.411 98.0676 312.469 98.0988C310.339 102.099 309.688 106.708 307.714 110.786C307.234 111.776 308.286 112.859 309.302 112.521C312.292 111.474 314.672 109.156 316.818 106.922C318 105.698 319.125 104.411 320.271 103.151C320.807 102.568 321.354 101.969 321.917 101.396C322.177 101.135 322.474 100.875 322.745 100.599C324.88 101.036 327.255 101.015 329.406 100.87C330.651 100.792 331.828 100.625 332.953 100.349C336.349 100.125 339.724 99.4217 342.839 98.2134C348.344 96.0988 352.917 92.2238 355.974 87.2082C359.417 81.6405 361.286 74.6405 361.323 68.0936ZM345.536 94.578C340.167 97.8332 333.849 98.9217 327.635 98.8592C326.781 98.8436 325.927 98.8436 325.068 98.8436C324.521 98.7811 323.958 98.7082 323.411 98.6457C323.182 98.1196 322.615 97.8019 321.943 97.9738C320.63 98.3019 319.406 100.099 318.521 101.062C317.448 102.234 316.385 103.427 315.297 104.588C314.031 105.948 312.656 107.432 311.109 108.609C312.036 105.208 312.5 101.698 313.667 98.3801C314.021 98.3332 314.359 98.1769 314.646 97.8592C315.177 97.2498 315.208 96.0155 314.458 95.5259C311.516 93.5936 307.953 92.9738 304.729 91.6769C301.411 90.354 298.458 88.0988 295.932 85.5988C291.234 80.9478 288.766 74.6926 289.594 68.0936C290.354 62.0415 293.432 56.5103 297.401 51.9738C301.557 47.2394 306.818 43.4269 312.797 41.3436C324.786 37.1769 337.875 40.8696 347.672 48.5103C350.25 50.5207 352.745 52.7446 354.594 55.4582C356.318 57.9842 357.484 60.8801 358.026 63.8696C359.151 70.1092 358.068 76.5519 355.703 82.3644C353.609 87.4426 350.25 91.7134 345.536 94.578Z" fill="#F11926"/>
</g>
</g>
</g>
<mask id="mask3_82_2" style="mask-type:luminance" maskUnits="userSpaceOnUse" x="313" y="52" width="30" height="32">
<path d="M313.333 52H342.667V84H313.333V52Z" fill="white"/>
</mask>
<g mask="url(#mask3_82_2)">
<mask id="mask4_82_2" style="mask-type:luminance" maskUnits="userSpaceOnUse" x="270" y="21" width="103" height="106">
<path d="M304.63 21.75L372.583 53.4948L338.297 126.885L270.344 95.1354L304.63 21.75Z" fill="white"/>
</mask>
<g mask="url(#mask4_82_2)">
<mask id="mask5_82_2" style="mask-type:luminance" maskUnits="userSpaceOnUse" x="270" y="21" width="103" height="106">
<path d="M304.63 21.75L372.583 53.4948L338.297 126.885L270.344 95.1354L304.63 21.75Z" fill="white"/>
</mask>
<g mask="url(#mask5_82_2)">
<path d="M341.313 59.6146C340.719 57.9636 339.26 57.0053 337.682 56.7865C335.911 56.2032 333.656 56.8386 332.12 57.6511C330.63 58.4375 329.318 59.6042 328.271 60.9063C327.635 61.7084 327.083 62.5469 326.547 63.3959C326.474 63.1823 326.328 63.0105 326.146 62.875C325.995 61.2553 325.495 59.6615 324.813 58.125C323.88 56.0365 322.302 53.1198 319.786 52.7084C316.865 52.2188 315.104 55.7657 314.76 58.1146C314.177 62.0886 315.474 65.9011 316.151 69.7709C316.5 71.7969 316.557 73.8803 316.901 75.9219C317.01 76.6198 317.161 77.5417 317.458 78.3594C317.495 78.6198 317.51 78.8855 317.547 79.1459C317.62 79.7761 317.698 80.6146 317.932 81.349C317.984 81.8803 318.036 82.4063 318.161 82.9219C318.292 83.4688 319.115 83.6928 319.536 83.3542C319.563 83.3282 319.589 83.3073 319.62 83.2865C320.88 82.9011 322.182 82.2553 323.365 81.448C328.693 78.5417 333.99 75.1771 337.844 70.4844C339.271 68.7448 341.214 65.5938 341.495 62.7813C341.677 61.6823 341.667 60.5834 341.313 59.6146Z" fill="#F11926"/>
</g>
</g>
</g>
<path d="M59.0669 143.724L56.7336 114.391H56.4211L46.2961 143.432H39.5669L29.4211 114.391H29.1294L26.7961 143.724H15.5044L19.9419 94.2241H31.9419L42.9211 122.787L53.9002 94.2241H65.9002L70.3377 143.724H59.0669Z" fill="#F11926"/>
<path d="M73.9934 139.912C71.1184 136.776 69.6809 132.927 69.6809 128.37C69.6809 123.802 71.1184 119.943 73.9934 116.787C76.8788 113.62 80.5455 112.037 84.9934 112.037C89.0611 112.037 92.4153 113.323 95.0559 115.891V112.953H105.681V143.724H95.1809V140.245H95.0559C92.4153 143.162 89.0611 144.62 84.9934 144.62C80.5455 144.62 76.8788 143.052 73.9934 139.912ZM83.0351 123.141C81.6601 124.505 80.9726 126.245 80.9726 128.37C80.9726 130.485 81.6288 132.214 82.9517 133.557C84.2694 134.891 86.0038 135.557 88.1601 135.557C90.2434 135.557 91.9517 134.88 93.2851 133.516C94.6288 132.156 95.3059 130.443 95.3059 128.37C95.3059 126.245 94.608 124.505 93.2226 123.141C91.8476 121.781 90.1601 121.099 88.1601 121.099C86.1184 121.099 84.4101 121.781 83.0351 123.141Z" fill="#F11926"/>
<path d="M111.682 112.953V101.474H122.307V112.953H128.786V121.037H122.307V130.828C122.307 133.662 123.104 135.078 124.702 135.078C125.104 135.078 125.52 135.005 125.952 134.849C126.395 134.682 126.744 134.526 126.994 134.37L127.348 134.12L129.994 142.703C127.702 143.979 125.098 144.62 122.182 144.62C120.182 144.62 118.458 144.271 117.015 143.578C115.583 142.87 114.494 141.927 113.744 140.745C113.005 139.568 112.479 138.328 112.161 137.037C111.838 135.735 111.682 134.344 111.682 132.87V121.037H107.244V112.953H111.682Z" fill="#F11926"/>
<path d="M146.965 120.745C144.965 120.745 143.241 121.49 141.798 122.974C140.366 124.448 139.653 126.224 139.653 128.307C139.653 130.422 140.366 132.219 141.798 133.703C143.241 135.193 144.965 135.932 146.965 135.932C147.923 135.932 148.83 135.818 149.694 135.578C150.554 135.328 151.184 135.089 151.59 134.849L152.132 134.474L155.736 141.87C155.444 142.068 155.048 142.318 154.548 142.62C154.048 142.912 152.908 143.318 151.132 143.828C149.35 144.354 147.444 144.62 145.403 144.62C140.887 144.62 136.913 143.031 133.486 139.849C130.069 136.672 128.361 132.865 128.361 128.432C128.361 123.948 130.069 120.094 133.486 116.87C136.913 113.651 140.887 112.037 145.403 112.037C147.444 112.037 149.324 112.281 151.048 112.766C152.767 113.24 153.991 113.719 154.715 114.203L155.736 114.932L152.132 122.182C150.809 121.224 149.09 120.745 146.965 120.745Z" fill="#F11926"/>
<path d="M157.05 143.724V92.1196H167.675V116.182H167.779C170.54 113.422 173.488 112.036 176.613 112.036C178.123 112.036 179.633 112.239 181.133 112.64C182.633 113.047 184.071 113.672 185.446 114.515C186.831 115.349 187.956 116.536 188.821 118.078C189.68 119.62 190.113 121.411 190.113 123.453V143.724H179.488V126.328C179.488 124.734 178.972 123.338 177.946 122.14C176.93 120.932 175.602 120.328 173.967 120.328C172.368 120.328 170.915 120.948 169.613 122.182C168.321 123.422 167.675 124.802 167.675 126.328V143.724H157.05Z" fill="#F11926"/>
<path d="M228.856 112.953L214.231 127.64L230.314 143.724H216.627L204.335 131.432V143.724H193.71V92.1196H204.335V123.682L215.064 112.953H228.856Z" fill="#F11926"/>
<path d="M229.47 143.724V112.953H240.095V117.391H240.199C240.282 117.224 240.413 117.026 240.595 116.787C240.772 116.552 241.163 116.136 241.762 115.537C242.355 114.927 242.996 114.386 243.678 113.912C244.355 113.427 245.241 112.995 246.324 112.62C247.407 112.235 248.501 112.037 249.616 112.037C250.782 112.037 251.918 112.198 253.032 112.516C254.157 112.839 254.98 113.156 255.512 113.474L256.345 113.974L251.907 122.974C250.585 121.849 248.746 121.287 246.387 121.287C245.105 121.287 244.001 121.573 243.074 122.141C242.157 122.698 241.512 123.38 241.137 124.182C240.762 124.974 240.491 125.651 240.324 126.203C240.168 126.761 240.095 127.198 240.095 127.516V143.724H229.47Z" fill="#F11926"/>
<path d="M259.246 140.057C255.829 137.016 254.121 133.12 254.121 128.37C254.121 123.61 255.897 119.698 259.454 116.641C263.022 113.573 267.423 112.037 272.663 112.037C277.829 112.037 282.173 113.578 285.704 116.662C289.246 119.745 291.017 123.651 291.017 128.37C291.017 133.094 289.288 136.985 285.829 140.037C282.371 143.094 277.98 144.62 272.663 144.62C267.147 144.62 262.673 143.099 259.246 140.057ZM267.475 123.141C266.1 124.505 265.413 126.245 265.413 128.37C265.413 130.485 266.069 132.214 267.392 133.557C268.709 134.891 270.444 135.557 272.6 135.557C274.683 135.557 276.392 134.88 277.725 133.516C279.069 132.156 279.746 130.443 279.746 128.37C279.746 126.245 279.048 124.505 277.663 123.141C276.288 121.781 274.6 121.099 272.6 121.099C270.558 121.099 268.85 121.781 267.475 123.141Z" fill="#F11926"/>
<mask id="mask6_82_2" style="mask-type:luminance" maskUnits="userSpaceOnUse" x="129" y="161" width="107" height="15">
<path d="M129.333 161.333H235.917V176H129.333V161.333Z" fill="white"/>
</mask>
<g mask="url(#mask6_82_2)">
<path d="M234.073 172.422H141.443C144.729 167.36 141.729 162.599 136.562 163.61C132.51 164.401 130.864 169.542 133.547 172.104C135.25 173.724 137.625 174.083 139.89 173.677C137.068 176.521 133.12 174.891 132.062 173.833C128.224 170.016 130.609 163.886 136.14 162.412C140.807 161.162 146.187 164.755 143.786 170.917H234.073L234.812 171.651V171.688L234.073 172.422Z" fill="#FFBD59"/>
</g>
<path d="M37.75 170.917H130.38C127.094 175.984 130.099 180.745 135.26 179.734C139.313 178.938 140.958 173.797 138.276 171.24C136.573 169.615 134.203 169.255 131.938 169.667C134.755 166.823 138.703 168.448 139.766 169.505C143.599 173.328 141.214 179.458 135.688 180.932C131.021 182.177 125.635 178.583 128.042 172.422H37.75L37.0156 171.688V171.651L37.75 170.917Z" fill="#FFBD59"/>
<mask id="mask7_82_2" style="mask-type:luminance" maskUnits="userSpaceOnUse" x="357" y="40" width="10" height="7">
<path d="M357.333 40H366.667V46.6667H357.333V40Z" fill="white"/>
</mask>
<g mask="url(#mask7_82_2)">
<mask id="mask8_82_2" style="mask-type:luminance" maskUnits="userSpaceOnUse" x="339" y="21" width="43" height="40">
<path d="M372.261 60.7656L339.089 33.3958L348.636 21.8281L381.802 49.1927L372.261 60.7656Z" fill="white"/>
</mask>
<g mask="url(#mask8_82_2)">
<mask id="mask9_82_2" style="mask-type:luminance" maskUnits="userSpaceOnUse" x="312" y="-1" width="70" height="62">
<path d="M372.261 60.7658L312.094 11.12L321.641 -0.447754L381.802 49.1929L372.261 60.7658Z" fill="white"/>
</mask>
<g mask="url(#mask9_82_2)">
<path d="M364.938 40.3907L358.391 44.1824C357.266 44.8386 358.464 46.5053 359.579 45.8594L366.125 42.0626C367.25 41.4115 366.052 39.7449 364.938 40.3907Z" fill="#FF914D"/>
</g>
</g>
</g>
<mask id="mask10_82_2" style="mask-type:luminance" maskUnits="userSpaceOnUse" x="366" y="54" width="9" height="4">
<path d="M366.667 54.6665H374.667V57.3332H366.667V54.6665Z" fill="white"/>
</mask>
<g mask="url(#mask10_82_2)">
<mask id="mask11_82_2" style="mask-type:luminance" maskUnits="userSpaceOnUse" x="339" y="21" width="43" height="40">
<path d="M372.26 60.7656L339.088 33.3958L348.635 21.8281L381.802 49.1927L372.26 60.7656Z" fill="white"/>
</mask>
<g mask="url(#mask11_82_2)">
<mask id="mask12_82_2" style="mask-type:luminance" maskUnits="userSpaceOnUse" x="312" y="-1" width="70" height="62">
<path d="M372.26 60.7658L312.094 11.12L321.64 -0.447754L381.802 49.1929L372.26 60.7658Z" fill="white"/>
</mask>
<g mask="url(#mask12_82_2)">
<path d="M373.375 54.7294L368.474 54.7085C367.161 54.6981 367.385 56.7242 368.687 56.7294L373.588 56.7554C374.901 56.7658 374.677 54.7398 373.375 54.7294Z" fill="#FF914D"/>
</g>
</g>
</g>
<mask id="mask13_82_2" style="mask-type:luminance" maskUnits="userSpaceOnUse" x="346" y="24" width="6" height="11">
<path d="M346.667 24H352V34.6667H346.667V24Z" fill="white"/>
</mask>
<g mask="url(#mask13_82_2)">
<mask id="mask14_82_2" style="mask-type:luminance" maskUnits="userSpaceOnUse" x="339" y="21" width="43" height="40">
<path d="M372.26 60.7656L339.088 33.3958L348.635 21.8281L381.802 49.1927L372.26 60.7656Z" fill="white"/>
</mask>
<g mask="url(#mask14_82_2)">
<mask id="mask15_82_2" style="mask-type:luminance" maskUnits="userSpaceOnUse" x="312" y="-1" width="70" height="62">
<path d="M372.26 60.7658L312.094 11.12L321.64 -0.447754L381.802 49.1929L372.26 60.7658Z" fill="white"/>
</mask>
<g mask="url(#mask15_82_2)">
<path d="M349.786 32.7397C350.093 30.297 350.583 27.8751 351.244 25.5053C351.593 24.2553 349.573 23.922 349.229 25.1616C348.567 27.5314 348.078 29.9481 347.771 32.396C347.604 33.6876 349.619 34.0418 349.786 32.7397Z" fill="#FF914D"/>
</g>
</g>
</g>
</svg>
